<svg xmlns="http://www.w3.org/2000/svg" viewBox="0 0 800 800" role="img" aria-label="Cacio e pepe, overhead">
<defs><filter id="grain"><feTurbulence type="fractalNoise" baseFrequency="0.9" numOctaves="2" stitchTiles="stitch" result="n"/><feColorMatrix in="n" type="matrix" values="0 0 0 0 0  0 0 0 0 0  0 0 0 0 0  0 0 0 0.5 0"/></filter><pattern id="linen" width="26" height="26" patternUnits="userSpaceOnUse"><rect width="26" height="26" fill="#EFE6D2"/><path d="M0,13 H26 M13,0 V26" stroke="#E5DAC1" stroke-width="2"/></pattern></defs><rect width="800" height="800" fill="url(#linen)"/>
<path d="M560,40 l260,0 0,240 -110,-24 -96,-70 Z" fill="#E2D6BD" opacity=".8"/>
<circle cx="400" cy="400" r="290" fill="#FBF7EC" stroke="#D8CBB2" stroke-width="4"/><circle cx="400" cy="400" r="264" fill="none" stroke="#6E6E2E" stroke-width="7" opacity=".85"/><circle cx="400" cy="400" r="238" fill="#FFFDF6"/><ellipse cx="400" cy="682" rx="267" ry="26" fill="#2E2418" opacity=".12"/><clipPath id="well"><circle cx="400" cy="400" r="236"/></clipPath><g clip-path="url(#well)"><ellipse cx="400" cy="392" rx="196" ry="164" fill="#EDBE62"/>
<path d="M381,424 Q334,376 276,365" fill="none" stroke="#E8C36A" stroke-width="13" stroke-linecap="round"/><path d="M407,419 Q343,375 265,455" fill="none" stroke="#E8C36A" stroke-width="13" stroke-linecap="round"/><path d="M329,326 Q301,217 400,185" fill="none" stroke="#EFCF82" stroke-width="10" stroke-linecap="round"/><path d="M423,417 Q307,494 280,549" fill="none" stroke="#EFCF82" stroke-width="10" stroke-linecap="round"/><path d="M372,385 Q387,317 352,270" fill="none" stroke="#DDB258" stroke-width="11" stroke-linecap="round"/><path d="M464,363 Q551,347 559,447" fill="none" stroke="#DDB258" stroke-width="11" stroke-linecap="round"/><path d="M489,316 Q535,356 689,419" fill="none" stroke="#DDB258" stroke-width="10" stroke-linecap="round"/><path d="M374,394 Q395,362 395,225" fill="none" stroke="#DDB258" stroke-width="10" stroke-linecap="round"/><path d="M346,456 Q250,383 269,374" fill="none" stroke="#E8C36A" stroke-width="9" stroke-linecap="round"/><path d="M366,299 Q443,299 581,331" fill="none" stroke="#DDB258" stroke-width="9" stroke-linecap="round"/><path d="M357,401 Q357,308 283,319" fill="none" stroke="#EFCF82" stroke-width="11" stroke-linecap="round"/><path d="M480,353 Q512,346 607,441" fill="none" stroke="#F2D896" stroke-width="12" stroke-linecap="round"/><path d="M386,460 Q337,408 160,453" fill="none" stroke="#EFCF82" stroke-width="10" stroke-linecap="round"/><path d="M388,376 Q426,313 526,349" fill="none" stroke="#DDB258" stroke-width="11" stroke-linecap="round"/><path d="M384,422 Q323,389 219,289" fill="none" stroke="#F2D896" stroke-width="13" stroke-linecap="round"/><path d="M427,268 Q487,244 575,330" fill="none" stroke="#F2D896" stroke-width="9" stroke-linecap="round"/><path d="M446,410 Q376,404 432,538" fill="none" stroke="#EFCF82" stroke-width="11" stroke-linecap="round"/><path d="M503,362 Q536,424 602,447" fill="none" stroke="#DDB258" stroke-width="11" stroke-linecap="round"/><path d="M364,397 Q340,277 323,210" fill="none" stroke="#EFCF82" stroke-width="9" stroke-linecap="round"/><path d="M368,434 Q258,453 282,346" fill="none" stroke="#DDB258" stroke-width="10" stroke-linecap="round"/><path d="M377,386 Q463,323 447,205" fill="none" stroke="#DDB258" stroke-width="11" stroke-linecap="round"/><path d="M460,358 Q530,426 599,456" fill="none" stroke="#EFCF82" stroke-width="12" stroke-linecap="round"/><path d="M453,292 Q523,238 633,315" fill="none" stroke="#E8C36A" stroke-width="12" stroke-linecap="round"/><path d="M353,399 Q390,366 341,270" fill="none" stroke="#DDB258" stroke-width="13" stroke-linecap="round"/><path d="M366,426 Q260,418 236,376" fill="none" stroke="#E8C36A" stroke-width="11" stroke-linecap="round"/><path d="M322,296 Q431,268 426,160" fill="none" stroke="#EFCF82" stroke-width="11" stroke-linecap="round"/><path d="M458,496 Q436,532 282,596" fill="none" stroke="#F2D896" stroke-width="12" stroke-linecap="round"/><path d="M437,411 Q397,432 332,462" fill="none" stroke="#EFCF82" stroke-width="11" stroke-linecap="round"/><path d="M327,349 Q393,254 446,293" fill="none" stroke="#E8C36A" stroke-width="11" stroke-linecap="round"/><path d="M476,363 Q440,416 486,538" fill="none" stroke="#DDB258" stroke-width="11" stroke-linecap="round"/><path d="M406,334 Q453,379 624,357" fill="none" stroke="#F2D896" stroke-width="12" stroke-linecap="round"/><path d="M438,317 Q470,329 605,438" fill="none" stroke="#E8C36A" stroke-width="12" stroke-linecap="round"/><path d="M418,300 Q430,341 543,347" fill="none" stroke="#E8C36A" stroke-width="11" stroke-linecap="round"/><path d="M356,465 Q209,430 172,378" fill="none" stroke="#EFCF82" stroke-width="10" stroke-linecap="round"/><path d="M433,400 Q475,387 406,496" fill="none" stroke="#DDB258" stroke-width="11" stroke-linecap="round"/><path d="M306,389 Q330,318 345,253" fill="none" stroke="#EFCF82" stroke-width="12" stroke-linecap="round"/><path d="M512,298 Q653,385 671,377" fill="none" stroke="#EFCF82" stroke-width="11" stroke-linecap="round"/><path d="M349,427 Q267,340 266,307" fill="none" stroke="#E8C36A" stroke-width="13" stroke-linecap="round"/><path d="M470,480 Q462,569 346,527" fill="none" stroke="#EFCF82" stroke-width="12" stroke-linecap="round"/><path d="M523,463 Q459,569 473,618" fill="none" stroke="#F2D896" stroke-width="10" stroke-linecap="round"/><path d="M422,446 Q369,443 301,457" fill="none" stroke="#E8C36A" stroke-width="11" stroke-linecap="round"/><path d="M338,386 Q432,303 410,296" fill="none" stroke="#E8C36A" stroke-width="9" stroke-linecap="round"/><path d="M379,521 Q320,585 172,551" fill="none" stroke="#DDB258" stroke-width="11" stroke-linecap="round"/><path d="M308,373 Q295,353 343,249" fill="none" stroke="#EFCF82" stroke-width="11" stroke-linecap="round"/><path d="M540,451 Q422,573 420,595" fill="none" stroke="#E8C36A" stroke-width="10" stroke-linecap="round"/><path d="M416,405 Q393,443 254,447" fill="none" stroke="#E8C36A" stroke-width="11" stroke-linecap="round"/><circle cx="537" cy="488" r="5.4" fill="#FBF3DC" opacity=".95"/><circle cx="439" cy="495" r="5.8" fill="#FBF3DC" opacity=".95"/><circle cx="415" cy="447" r="3.1" fill="#FBF3DC" opacity=".95"/><circle cx="470" cy="380" r="5.3" fill="#FBF3DC" opacity=".95"/><circle cx="443" cy="339" r="3.1" fill="#FBF3DC" opacity=".95"/><circle cx="528" cy="299" r="4.4" fill="#FBF3DC" opacity=".95"/><circle cx="353" cy="341" r="5.2" fill="#FBF3DC" opacity=".95"/><circle cx="543" cy="332" r="5.0" fill="#FBF3DC" opacity=".95"/><circle cx="340" cy="406" r="4.2" fill="#FBF3DC" opacity=".95"/><circle cx="300" cy="307" r="3.6" fill="#FBF3DC" opacity=".95"/><circle cx="522" cy="391" r="3.7" fill="#FBF3DC" opacity=".95"/><circle cx="522" cy="516" r="4.3" fill="#FBF3DC" opacity=".95"/><circle cx="292" cy="315" r="3.3" fill="#FBF3DC" opacity=".95"/><circle cx="353" cy="290" r="3.7" fill="#FBF3DC" opacity=".95"/><circle cx="328" cy="409" r="5.7" fill="#FBF3DC" opacity=".95"/><circle cx="475" cy="370" r="4.2" fill="#FBF3DC" opacity=".95"/><circle cx="407" cy="361" r="4.0" fill="#FBF3DC" opacity=".95"/><circle cx="269" cy="336" r="5.9" fill="#FBF3DC" opacity=".95"/><circle cx="288" cy="393" r="4.9" fill="#FBF3DC" opacity=".95"/><circle cx="509" cy="321" r="3.8" fill="#FBF3DC" opacity=".95"/><circle cx="325" cy="367" r="4.3" fill="#FBF3DC" opacity=".95"/><circle cx="536" cy="479" r="5.6" fill="#FBF3DC" opacity=".95"/><circle cx="257" cy="275" r="5.1" fill="#FBF3DC" opacity=".95"/><circle cx="519" cy="385" r="4.8" fill="#FBF3DC" opacity=".95"/><circle cx="250" cy="365" r="5.8" fill="#FBF3DC" opacity=".95"/><circle cx="498" cy="481" r="5.9" fill="#FBF3DC" opacity=".95"/><circle cx="325" cy="294" r="3.5" fill="#FBF3DC" opacity=".95"/><circle cx="407" cy="438" r="5.8" fill="#FBF3DC" opacity=".95"/><circle cx="467" cy="429" r="5.3" fill="#FBF3DC" opacity=".95"/><circle cx="387" cy="405" r="3.1" fill="#FBF3DC" opacity=".95"/><circle cx="485" cy="325" r="5.8" fill="#FBF3DC" opacity=".95"/><circle cx="444" cy="343" r="3.4" fill="#FBF3DC" opacity=".95"/><circle cx="326" cy="426" r="5.1" fill="#FBF3DC" opacity=".95"/><circle cx="284" cy="285" r="4.6" fill="#FBF3DC" opacity=".95"/><circle cx="425" cy="364" r="3.7" fill="#FBF3DC" opacity=".95"/><circle cx="430" cy="270" r="3.9" fill="#FBF3DC" opacity=".95"/><circle cx="388" cy="507" r="4.9" fill="#FBF3DC" opacity=".95"/><circle cx="515" cy="386" r="3.7" fill="#FBF3DC" opacity=".95"/><circle cx="306" cy="278" r="2.7" fill="#2E2418"/><circle cx="238" cy="306" r="3.0" fill="#2E2418"/><circle cx="330" cy="473" r="3.0" fill="#2E2418"/><circle cx="400" cy="298" r="3.1" fill="#2E2418"/><circle cx="227" cy="320" r="2.4" fill="#2E2418"/><circle cx="484" cy="410" r="2.8" fill="#2E2418"/><circle cx="391" cy="525" r="2.6" fill="#2E2418"/><circle cx="515" cy="375" r="3.4" fill="#2E2418"/><circle cx="520" cy="363" r="3.4" fill="#2E2418"/><circle cx="468" cy="540" r="3.1" fill="#2E2418"/><circle cx="520" cy="457" r="3.7" fill="#2E2418"/><circle cx="366" cy="349" r="2.5" fill="#2E2418"/><circle cx="267" cy="266" r="3.9" fill="#2E2418"/><circle cx="312" cy="294" r="2.6" fill="#2E2418"/><circle cx="523" cy="506" r="3.7" fill="#2E2418"/><circle cx="321" cy="318" r="3.0" fill="#2E2418"/><circle cx="385" cy="292" r="3.3" fill="#2E2418"/><circle cx="315" cy="534" r="4.3" fill="#2E2418"/><circle cx="417" cy="318" r="4.3" fill="#2E2418"/><circle cx="331" cy="352" r="2.4" fill="#2E2418"/><circle cx="357" cy="387" r="3.4" fill="#2E2418"/><circle cx="292" cy="396" r="2.4" fill="#2E2418"/><circle cx="315" cy="272" r="3.2" fill="#2E2418"/><circle cx="235" cy="252" r="3.0" fill="#2E2418"/><circle cx="304" cy="421" r="3.5" fill="#2E2418"/><circle cx="490" cy="442" r="3.8" fill="#2E2418"/><circle cx="536" cy="362" r="3.1" fill="#2E2418"/><circle cx="575" cy="290" r="3.8" fill="#2E2418"/><circle cx="452" cy="258" r="4.1" fill="#2E2418"/><circle cx="541" cy="433" r="3.9" fill="#2E2418"/><circle cx="512" cy="287" r="3.4" fill="#2E2418"/><circle cx="402" cy="495" r="4.0" fill="#2E2418"/><circle cx="518" cy="420" r="4.2" fill="#2E2418"/><circle cx="466" cy="453" r="2.9" fill="#2E2418"/><circle cx="231" cy="285" r="3.1" fill="#2E2418"/><circle cx="258" cy="496" r="3.5" fill="#2E2418"/><circle cx="446" cy="433" r="3.8" fill="#2E2418"/><circle cx="396" cy="246" r="4.0" fill="#2E2418"/><circle cx="489" cy="396" r="3.5" fill="#2E2418"/><circle cx="457" cy="265" r="3.9" fill="#2E2418"/><circle cx="311" cy="267" r="2.9" fill="#2E2418"/><circle cx="483" cy="307" r="3.9" fill="#2E2418"/><circle cx="571" cy="393" r="3.2" fill="#2E2418"/><circle cx="392" cy="450" r="3.9" fill="#2E2418"/><circle cx="442" cy="438" r="2.6" fill="#2E2418"/><circle cx="273" cy="321" r="3.9" fill="#2E2418"/><circle cx="330" cy="415" r="2.4" fill="#2E2418"/><circle cx="242" cy="326" r="3.7" fill="#2E2418"/><circle cx="469" cy="448" r="3.0" fill="#2E2418"/><circle cx="406" cy="384" r="3.3" fill="#2E2418"/><circle cx="263" cy="513" r="2.8" fill="#2E2418"/><circle cx="572" cy="526" r="2.4" fill="#2E2418"/><circle cx="385" cy="491" r="4.3" fill="#2E2418"/><circle cx="382" cy="326" r="2.8" fill="#2E2418"/><circle cx="560" cy="308" r="3.6" fill="#2E2418"/><circle cx="271" cy="402" r="4.3" fill="#2E2418"/><circle cx="268" cy="491" r="3.4" fill="#2E2418"/><circle cx="539" cy="456" r="2.9" fill="#2E2418"/><circle cx="543" cy="391" r="2.4" fill="#2E2418"/><circle cx="221" cy="393" r="3.3" fill="#2E2418"/><circle cx="329" cy="287" r="3.1" fill="#2E2418"/><circle cx="334" cy="497" r="2.4" fill="#2E2418"/><circle cx="490" cy="497" r="2.6" fill="#2E2418"/><circle cx="554" cy="459" r="4.2" fill="#2E2418"/><circle cx="324" cy="357" r="3.2" fill="#2E2418"/><circle cx="580" cy="422" r="3.1" fill="#2E2418"/><circle cx="374" cy="328" r="2.5" fill="#2E2418"/><circle cx="257" cy="495" r="3.0" fill="#2E2418"/><circle cx="557" cy="320" r="2.9" fill="#2E2418"/><circle cx="404" cy="302" r="3.1" fill="#2E2418"/></g>
<g transform="translate(400,392)"><path d="M-30,-20 a34,28 0 1 1 60,10" fill="none" stroke="#C89A3F" stroke-width="10" stroke-linecap="round" opacity=".7"/></g>
<g transform="translate(88,400) rotate(-90)" stroke="#8A8272" stroke-width="12" stroke-linecap="round" fill="none">
<line x1="0" y1="0" x2="0" y2="150"/><line x1="-18" y1="-44" x2="-18" y2="6"/><line x1="0" y1="-48" x2="0" y2="6"/><line x1="18" y1="-44" x2="18" y2="6"/><path d="M-18,6 Q0,26 18,6"/></g>
<circle cx="704" cy="676" r="44" fill="#FBF7EC" stroke="#D8CBB2" stroke-width="4"/><g fill="#2E2418"><circle cx="694" cy="668" r="5"/><circle cx="712" cy="680" r="4"/><circle cx="700" cy="690" r="3.4"/><circle cx="716" cy="662" r="3.2"/></g>
<rect width="100%" height="100%" filter="url(#grain)" opacity=".05"/>
</svg>